<mxfile host="app.diagrams.net" agent="Mozilla/5.0 (Windows NT 10.0; Win64; x64) AppleWebKit/537.36 (KHTML, like Gecko) Chrome/133.0.0.0 Safari/537.36" version="26.0.11">
  <diagram name="Sayfa -1" id="jmlqZNQzYDG5Q4n75CaI">
    <mxGraphModel grid="1" page="1" gridSize="10" guides="1" tooltips="1" connect="1" arrows="1" fold="1" pageScale="1" pageWidth="1169" pageHeight="827" math="0" shadow="0">
      <root>
        <mxCell id="0" />
        <mxCell id="1" parent="0" />
        <mxCell id="VEw9TIkH1aPf8q7SVpP_-23" value="" style="shape=cube;whiteSpace=wrap;html=1;boundedLbl=1;backgroundOutline=1;darkOpacity=0.05;darkOpacity2=0.1;" vertex="1" parent="1">
          <mxGeometry width="770" height="370" as="geometry" />
        </mxCell>
        <mxCell id="VEw9TIkH1aPf8q7SVpP_-24" value="" style="edgeStyle=orthogonalEdgeStyle;rounded=0;orthogonalLoop=1;jettySize=auto;html=1;strokeWidth=4;fontSize=15;" edge="1" parent="1" source="VEw9TIkH1aPf8q7SVpP_-25" target="VEw9TIkH1aPf8q7SVpP_-28">
          <mxGeometry relative="1" as="geometry" />
        </mxCell>
        <mxCell id="VEw9TIkH1aPf8q7SVpP_-25" value="BAŞLA" style="ellipse;whiteSpace=wrap;html=1;fontSize=15;fontStyle=1;strokeWidth=4;" vertex="1" parent="1">
          <mxGeometry x="40" y="40" width="120" height="80" as="geometry" />
        </mxCell>
        <mxCell id="VEw9TIkH1aPf8q7SVpP_-26" value="BİTİR" style="ellipse;whiteSpace=wrap;html=1;fontSize=15;fontStyle=1;strokeWidth=4;" vertex="1" parent="1">
          <mxGeometry x="40" y="245" width="120" height="80" as="geometry" />
        </mxCell>
        <mxCell id="VEw9TIkH1aPf8q7SVpP_-27" value="" style="edgeStyle=orthogonalEdgeStyle;rounded=0;orthogonalLoop=1;jettySize=auto;html=1;strokeWidth=4;fontSize=15;" edge="1" parent="1" source="VEw9TIkH1aPf8q7SVpP_-28" target="VEw9TIkH1aPf8q7SVpP_-30">
          <mxGeometry relative="1" as="geometry" />
        </mxCell>
        <mxCell id="VEw9TIkH1aPf8q7SVpP_-28" value="&lt;b&gt;&lt;font&gt;Problemin tanımlanması&lt;/font&gt;&lt;/b&gt;" style="rounded=0;whiteSpace=wrap;html=1;strokeWidth=4;fontSize=15;" vertex="1" parent="1">
          <mxGeometry x="200" y="45" width="120" height="70" as="geometry" />
        </mxCell>
        <mxCell id="VEw9TIkH1aPf8q7SVpP_-29" value="" style="edgeStyle=orthogonalEdgeStyle;rounded=0;orthogonalLoop=1;jettySize=auto;html=1;strokeWidth=4;fontSize=15;" edge="1" parent="1" source="VEw9TIkH1aPf8q7SVpP_-30" target="VEw9TIkH1aPf8q7SVpP_-32">
          <mxGeometry relative="1" as="geometry" />
        </mxCell>
        <mxCell id="VEw9TIkH1aPf8q7SVpP_-30" value="Girdi, çıktı ve amacı belirlenmesi" style="rounded=0;whiteSpace=wrap;html=1;strokeWidth=4;fontSize=15;fontStyle=1" vertex="1" parent="1">
          <mxGeometry x="360" y="45" width="120" height="70" as="geometry" />
        </mxCell>
        <mxCell id="VEw9TIkH1aPf8q7SVpP_-31" value="" style="edgeStyle=orthogonalEdgeStyle;rounded=0;orthogonalLoop=1;jettySize=auto;html=1;strokeWidth=4;fontSize=15;" edge="1" parent="1" source="VEw9TIkH1aPf8q7SVpP_-32" target="VEw9TIkH1aPf8q7SVpP_-34">
          <mxGeometry relative="1" as="geometry" />
        </mxCell>
        <mxCell id="VEw9TIkH1aPf8q7SVpP_-32" value="Algoritma tasarımı" style="rounded=0;whiteSpace=wrap;html=1;strokeWidth=4;fontSize=15;fontStyle=1" vertex="1" parent="1">
          <mxGeometry x="510" y="45" width="120" height="70" as="geometry" />
        </mxCell>
        <mxCell id="VEw9TIkH1aPf8q7SVpP_-33" value="" style="edgeStyle=orthogonalEdgeStyle;rounded=0;orthogonalLoop=1;jettySize=auto;html=1;strokeWidth=4;fontSize=15;" edge="1" parent="1" source="VEw9TIkH1aPf8q7SVpP_-34" target="VEw9TIkH1aPf8q7SVpP_-36">
          <mxGeometry relative="1" as="geometry" />
        </mxCell>
        <mxCell id="VEw9TIkH1aPf8q7SVpP_-34" value="&lt;b&gt;Programlama Dili Seçimi&lt;/b&gt;" style="rounded=0;whiteSpace=wrap;html=1;strokeWidth=4;fontSize=15;" vertex="1" parent="1">
          <mxGeometry x="510" y="140" width="120" height="70" as="geometry" />
        </mxCell>
        <mxCell id="VEw9TIkH1aPf8q7SVpP_-35" value="" style="edgeStyle=orthogonalEdgeStyle;rounded=0;orthogonalLoop=1;jettySize=auto;html=1;strokeWidth=4;fontSize=15;" edge="1" parent="1" source="VEw9TIkH1aPf8q7SVpP_-36" target="VEw9TIkH1aPf8q7SVpP_-38">
          <mxGeometry relative="1" as="geometry" />
        </mxCell>
        <mxCell id="VEw9TIkH1aPf8q7SVpP_-36" value="&lt;b&gt;Algoritmayı Kodlamak&lt;/b&gt;" style="rounded=0;whiteSpace=wrap;html=1;strokeWidth=4;fontSize=15;" vertex="1" parent="1">
          <mxGeometry x="510" y="250" width="120" height="70" as="geometry" />
        </mxCell>
        <mxCell id="VEw9TIkH1aPf8q7SVpP_-37" value="" style="edgeStyle=orthogonalEdgeStyle;rounded=0;orthogonalLoop=1;jettySize=auto;html=1;strokeWidth=4;fontSize=15;" edge="1" parent="1" source="VEw9TIkH1aPf8q7SVpP_-38" target="VEw9TIkH1aPf8q7SVpP_-40">
          <mxGeometry relative="1" as="geometry" />
        </mxCell>
        <mxCell id="VEw9TIkH1aPf8q7SVpP_-38" value="Algoritma Analizi" style="rounded=0;whiteSpace=wrap;html=1;strokeWidth=4;fontSize=15;fontStyle=1" vertex="1" parent="1">
          <mxGeometry x="350" y="250" width="120" height="70" as="geometry" />
        </mxCell>
        <mxCell id="VEw9TIkH1aPf8q7SVpP_-39" value="" style="edgeStyle=orthogonalEdgeStyle;rounded=0;orthogonalLoop=1;jettySize=auto;html=1;strokeWidth=4;fontSize=15;" edge="1" parent="1" source="VEw9TIkH1aPf8q7SVpP_-40" target="VEw9TIkH1aPf8q7SVpP_-26">
          <mxGeometry relative="1" as="geometry" />
        </mxCell>
        <mxCell id="VEw9TIkH1aPf8q7SVpP_-40" value="&lt;b&gt;Test ve Düzeltme&lt;/b&gt;" style="rounded=0;whiteSpace=wrap;html=1;strokeWidth=4;fontSize=15;" vertex="1" parent="1">
          <mxGeometry x="190" y="250" width="120" height="70" as="geometry" />
        </mxCell>
        <mxCell id="VEw9TIkH1aPf8q7SVpP_-43" value="Python-Veri Yapılar ve Algoritmalar" style="swimlane;fontStyle=0;childLayout=stackLayout;horizontal=1;startSize=30;horizontalStack=0;resizeParent=1;resizeParentMax=0;resizeLast=0;collapsible=1;marginBottom=0;whiteSpace=wrap;html=1;" vertex="1" parent="1">
          <mxGeometry x="140" y="130" width="340" height="90" as="geometry" />
        </mxCell>
        <mxCell id="VEw9TIkH1aPf8q7SVpP_-44" value="Calisma 3" style="text;strokeColor=none;fillColor=none;align=left;verticalAlign=middle;spacingLeft=4;spacingRight=4;overflow=hidden;points=[[0,0.5],[1,0.5]];portConstraint=eastwest;rotatable=0;whiteSpace=wrap;html=1;" vertex="1" parent="VEw9TIkH1aPf8q7SVpP_-43">
          <mxGeometry y="30" width="340" height="30" as="geometry" />
        </mxCell>
        <mxCell id="VEw9TIkH1aPf8q7SVpP_-45" value="Mehtap ERDİL-2025" style="text;strokeColor=none;fillColor=none;align=left;verticalAlign=middle;spacingLeft=4;spacingRight=4;overflow=hidden;points=[[0,0.5],[1,0.5]];portConstraint=eastwest;rotatable=0;whiteSpace=wrap;html=1;" vertex="1" parent="VEw9TIkH1aPf8q7SVpP_-43">
          <mxGeometry y="60" width="340" height="30" as="geometry" />
        </mxCell>
      </root>
    </mxGraphModel>
  </diagram>
</mxfile>
